<svg width="25" height="25" viewBox="0 0 25 25" fill="none" xmlns="http://www.w3.org/2000/svg">
<path d="M17.4992 0H7.50191C3.36759 0 0.00390625 3.36369 0.00390625 7.498V13.3298C0.00390625 17.3245 3.1439 20.5995 7.08535 20.8165V24.2923C7.08535 24.6826 7.4036 25 7.79475 25C7.98178 25 8.15882 24.9259 8.29253 24.7921L9.07399 24.0107C11.1259 21.9583 13.8548 20.8278 16.7574 20.8278H17.4992C21.6336 20.8278 24.9972 17.4641 24.9972 13.3298V7.498C24.9972 3.36369 21.6336 0 17.4992 0ZM7.08535 12.0801C6.16643 12.0801 5.41913 11.3328 5.41913 10.4139C5.41913 9.49497 6.16643 8.74767 7.08535 8.74767C8.00427 8.74767 8.75157 9.49497 8.75157 10.4139C8.75157 11.3328 8.00386 12.0801 7.08535 12.0801ZM12.5006 12.0801C11.5817 12.0801 10.8344 11.3328 10.8344 10.4139C10.8344 9.49497 11.5817 8.74767 12.5006 8.74767C13.4195 8.74767 14.1668 9.49497 14.1668 10.4139C14.1668 11.3328 13.4191 12.0801 12.5006 12.0801ZM17.9158 12.0801C16.9969 12.0801 16.2496 11.3328 16.2496 10.4139C16.2496 9.49497 16.9969 8.74767 17.9158 8.74767C18.8347 8.74767 19.582 9.49497 19.582 10.4139C19.582 11.3328 18.8343 12.0801 17.9158 12.0801Z" fill="white"/>
</svg>
