<svg width="30" height="18" viewBox="0 0 30 18" fill="none" xmlns="http://www.w3.org/2000/svg">
<path d="M17.5 9C17.5 10.3787 16.3787 11.5 15 11.5C13.6213 11.5 12.5 10.3787 12.5 9C12.5 7.62125 13.6213 6.5 15 6.5C16.3787 6.5 17.5 7.62125 17.5 9ZM30 8.43875C30 8.43875 24.685 17.75 15.0188 17.75C6.04375 17.75 0 8.43875 0 8.43875C0 8.43875 5.5575 0.25 15.0188 0.25C24.6362 0.25 30 8.43875 30 8.43875ZM20 9C20 6.24 17.7612 4 15 4C12.24 4 10 6.24 10 9C10 11.7613 12.24 14 15 14C17.7612 14 20 11.7613 20 9Z" fill="white"/>
</svg>
